<svg xmlns="http://www.w3.org/2000/svg" fill="none" viewBox="0 0 150 150">
  <path fill="#64646A" d="M125.6 78.7c-.7-.8-1.2-1.6-1.7-2.5a44.2 44.2 0 1 1-1.1-10.3l4-29.7v-.7a61.8 61.8 0 0 0-85.8-8v14.3c0 8.4-4.4 16-11.3 20.4v50a62 62 0 0 0 101.8-2.4V82.6c-2.2-.7-4.3-2-5.9-3.9Z"/>
  <path fill="#64646A" d="M79.8 39.1a36.7 36.7 0 1 0 0 73.3 36.7 36.7 0 0 0 0-73.3Zm70-31.9a5.8 5.8 0 0 0-11.5-.7L130 69.2a5.8 5.8 0 0 0 5.7 6.5h3.4V143a5.5 5.5 0 1 0 11 0l-.2-135.8ZM33.5 8.5a3.7 3.7 0 1 0-7.5 0v20.7h-5.5V8.5a3.7 3.7 0 1 0-7.5 0v20.7H7.5V8.5a3.7 3.7 0 1 0-7.5 0v33.8C0 49.6 4.7 55.8 11.2 58v85a5.5 5.5 0 0 0 11 0V58a16.8 16.8 0 0 0 11.3-15.8V8.5Z"/>
</svg>
