<svg xmlns="http://www.w3.org/2000/svg" fill="none" viewBox="0 0 150 150">
  <g fill="#64646A" clip-path="url(#a)">
    <path d="M45.3 104.3a13 13 0 0 1-6.6-11.4 36.7 36.7 0 0 1 36.6-36.7h15l.8-11.7H5.6L11.7 146c.2 2.3 2 4.1 4.4 4.1h27a21.9 21.9 0 0 1-4.4-13.2c0-5.7 3.6-10.5 8.7-12.4a17.5 17.5 0 0 1 0-19.1c-1.4-.4-2.2-.7-2-1Zm3-68.6h44a4.4 4.4 0 1 0 0-8.7H56.5L68.3 8.8h15.2a4.4 4.4 0 1 0 0-8.8H65.9c-1.5 0-2.9.7-3.7 2L46 27H4.4a4.4 4.4 0 1 0 0 8.7h44Z"/>
    <path d="M47.5 92.9c0 2.4 2 4.4 4.4 4.4h93.7c2.4 0 4.4-2 4.4-4.4A27.9 27.9 0 0 0 122.2 65h-47a27.9 27.9 0 0 0-27.6 28ZM62.1 106a8.8 8.8 0 1 0 0 17.6h73.3a8.8 8.8 0 0 0 0-17.5H62Zm83.5 26.4H51.9c-2.5 0-4.4 2-4.4 4.4 0 7.3 5.9 13.2 13.1 13.2h76.2c7.3 0 13.2-6 13.2-13.2 0-2.4-2-4.4-4.4-4.4Z"/>
  </g>
  <defs>
    <clipPath id="a">
      <path fill="#fff" d="M0 0h150v150H0z"/>
    </clipPath>
  </defs>
</svg>
